<mxfile host="app.diagrams.net" modified="2024-05-11T00:43:42.581Z" agent="Mozilla/5.0 (Windows NT 10.0; Win64; x64) AppleWebKit/537.36 (KHTML, like Gecko) Chrome/124.0.0.0 Safari/537.36" etag="mnuDgfdSkHaz13usBD44" version="24.3.1" type="github">
  <diagram name="PÃ¡gina-1" id="_-jYr5z-x3jwiVXwiHpg">
    <mxGraphModel dx="1434" dy="738" grid="1" gridSize="10" guides="1" tooltips="1" connect="1" arrows="1" fold="1" page="1" pageScale="1" pageWidth="827" pageHeight="1169" math="0" shadow="0">
      <root>
        <mxCell id="0" />
        <mxCell id="1" parent="0" />
        <mxCell id="T2ekVF5NeQB2pHT4nhK3-21" value="&lt;p style=&quot;margin:0px;margin-top:4px;text-align:center;&quot;&gt;&lt;i&gt;&amp;lt;&amp;lt;Interface&amp;gt;&amp;gt;&lt;/i&gt;&lt;br&gt;&lt;b&gt;NavegadorInternet&lt;/b&gt;&lt;/p&gt;&lt;hr size=&quot;1&quot; style=&quot;border-style:solid;&quot;&gt;&lt;p style=&quot;margin:0px;margin-left:4px;&quot;&gt;&lt;/p&gt;&lt;p style=&quot;margin:0px;margin-left:4px;&quot;&gt;+ exibirPagina(): void&lt;br&gt;+ adicionarNovaAba(): void&lt;/p&gt;&lt;p style=&quot;margin:0px;margin-left:4px;&quot;&gt;+ atualizarPagina(): void&lt;/p&gt;" style="verticalAlign=top;align=left;overflow=fill;html=1;whiteSpace=wrap;" vertex="1" parent="1">
          <mxGeometry x="569" y="350" width="190" height="110" as="geometry" />
        </mxCell>
        <mxCell id="T2ekVF5NeQB2pHT4nhK3-22" value="&lt;p style=&quot;margin:0px;margin-top:4px;text-align:center;&quot;&gt;&lt;i&gt;&amp;lt;&amp;lt;Interface&amp;gt;&amp;gt;&lt;/i&gt;&lt;br&gt;&lt;b&gt;ReprodutorMusical&lt;/b&gt;&lt;/p&gt;&lt;hr size=&quot;1&quot; style=&quot;border-style:solid;&quot;&gt;&lt;p style=&quot;margin:0px;margin-left:4px;&quot;&gt;&lt;/p&gt;&lt;p style=&quot;margin:0px;margin-left:4px;&quot;&gt;+ tocar(): void&lt;br&gt;+ pausar(): void&lt;/p&gt;&lt;p style=&quot;margin:0px;margin-left:4px;&quot;&gt;+ selecionarMusica(): void&lt;/p&gt;" style="verticalAlign=top;align=left;overflow=fill;html=1;whiteSpace=wrap;" vertex="1" parent="1">
          <mxGeometry x="69" y="350" width="190" height="110" as="geometry" />
        </mxCell>
        <mxCell id="T2ekVF5NeQB2pHT4nhK3-23" value="&lt;p style=&quot;margin:0px;margin-top:4px;text-align:center;&quot;&gt;&lt;i&gt;&amp;lt;&amp;lt;Interface&amp;gt;&amp;gt;&lt;/i&gt;&lt;br&gt;&lt;b&gt;AparelhoTelefonico&lt;/b&gt;&lt;/p&gt;&lt;hr size=&quot;1&quot; style=&quot;border-style:solid;&quot;&gt;&lt;p style=&quot;margin:0px;margin-left:4px;&quot;&gt;&lt;/p&gt;&lt;p style=&quot;margin:0px;margin-left:4px;&quot;&gt;+ ligar(): void&lt;br&gt;+ atender(): void&lt;/p&gt;&lt;p style=&quot;margin:0px;margin-left:4px;&quot;&gt;+ iniciarCorreioVoz(): void&lt;/p&gt;" style="verticalAlign=top;align=left;overflow=fill;html=1;whiteSpace=wrap;" vertex="1" parent="1">
          <mxGeometry x="319" y="350" width="190" height="110" as="geometry" />
        </mxCell>
        <mxCell id="T2ekVF5NeQB2pHT4nhK3-35" style="edgeStyle=orthogonalEdgeStyle;rounded=0;orthogonalLoop=1;jettySize=auto;html=1;" edge="1" parent="1" source="T2ekVF5NeQB2pHT4nhK3-24" target="T2ekVF5NeQB2pHT4nhK3-22">
          <mxGeometry relative="1" as="geometry" />
        </mxCell>
        <mxCell id="T2ekVF5NeQB2pHT4nhK3-24" value="&lt;p style=&quot;margin:0px;margin-top:4px;text-align:center;&quot;&gt;&lt;i&gt;&amp;lt;&amp;lt;Class&amp;gt;&amp;gt;&lt;/i&gt;&lt;br&gt;&lt;b&gt;Iphone&lt;/b&gt;&lt;/p&gt;&lt;hr size=&quot;1&quot; style=&quot;border-style:solid;&quot;&gt;&lt;p style=&quot;margin:0px;margin-left:4px;&quot;&gt;&lt;/p&gt;&lt;p style=&quot;margin:0px;margin-left:4px;&quot;&gt;&lt;br&gt;&lt;/p&gt;" style="verticalAlign=top;align=left;overflow=fill;html=1;whiteSpace=wrap;" vertex="1" parent="1">
          <mxGeometry x="304" y="560" width="190" height="110" as="geometry" />
        </mxCell>
        <mxCell id="T2ekVF5NeQB2pHT4nhK3-25" value="Ipod" style="swimlane;fontStyle=1;align=center;verticalAlign=top;childLayout=stackLayout;horizontal=1;startSize=26;horizontalStack=0;resizeParent=1;resizeParentMax=0;resizeLast=0;collapsible=1;marginBottom=0;whiteSpace=wrap;html=1;" vertex="1" parent="1">
          <mxGeometry x="82" y="130" width="160" height="70" as="geometry" />
        </mxCell>
        <mxCell id="T2ekVF5NeQB2pHT4nhK3-27" value="" style="line;strokeWidth=1;fillColor=none;align=left;verticalAlign=middle;spacingTop=-1;spacingLeft=3;spacingRight=3;rotatable=0;labelPosition=right;points=[];portConstraint=eastwest;strokeColor=inherit;" vertex="1" parent="T2ekVF5NeQB2pHT4nhK3-25">
          <mxGeometry y="26" width="160" height="44" as="geometry" />
        </mxCell>
        <mxCell id="T2ekVF5NeQB2pHT4nhK3-37" style="edgeStyle=orthogonalEdgeStyle;rounded=0;orthogonalLoop=1;jettySize=auto;html=1;" edge="1" parent="1" source="T2ekVF5NeQB2pHT4nhK3-29" target="T2ekVF5NeQB2pHT4nhK3-23">
          <mxGeometry relative="1" as="geometry" />
        </mxCell>
        <mxCell id="T2ekVF5NeQB2pHT4nhK3-29" value="Phone" style="swimlane;fontStyle=1;align=center;verticalAlign=top;childLayout=stackLayout;horizontal=1;startSize=26;horizontalStack=0;resizeParent=1;resizeParentMax=0;resizeLast=0;collapsible=1;marginBottom=0;whiteSpace=wrap;html=1;" vertex="1" parent="1">
          <mxGeometry x="332" y="130" width="160" height="70" as="geometry" />
        </mxCell>
        <mxCell id="T2ekVF5NeQB2pHT4nhK3-30" value="" style="line;strokeWidth=1;fillColor=none;align=left;verticalAlign=middle;spacingTop=-1;spacingLeft=3;spacingRight=3;rotatable=0;labelPosition=right;points=[];portConstraint=eastwest;strokeColor=inherit;" vertex="1" parent="T2ekVF5NeQB2pHT4nhK3-29">
          <mxGeometry y="26" width="160" height="44" as="geometry" />
        </mxCell>
        <mxCell id="T2ekVF5NeQB2pHT4nhK3-38" style="edgeStyle=orthogonalEdgeStyle;rounded=0;orthogonalLoop=1;jettySize=auto;html=1;" edge="1" parent="1" source="T2ekVF5NeQB2pHT4nhK3-31" target="T2ekVF5NeQB2pHT4nhK3-21">
          <mxGeometry relative="1" as="geometry" />
        </mxCell>
        <mxCell id="T2ekVF5NeQB2pHT4nhK3-31" value="Internet" style="swimlane;fontStyle=1;align=center;verticalAlign=top;childLayout=stackLayout;horizontal=1;startSize=26;horizontalStack=0;resizeParent=1;resizeParentMax=0;resizeLast=0;collapsible=1;marginBottom=0;whiteSpace=wrap;html=1;" vertex="1" parent="1">
          <mxGeometry x="586" y="130" width="160" height="70" as="geometry" />
        </mxCell>
        <mxCell id="T2ekVF5NeQB2pHT4nhK3-32" value="" style="line;strokeWidth=1;fillColor=none;align=left;verticalAlign=middle;spacingTop=-1;spacingLeft=3;spacingRight=3;rotatable=0;labelPosition=right;points=[];portConstraint=eastwest;strokeColor=inherit;" vertex="1" parent="T2ekVF5NeQB2pHT4nhK3-31">
          <mxGeometry y="26" width="160" height="44" as="geometry" />
        </mxCell>
        <mxCell id="T2ekVF5NeQB2pHT4nhK3-33" style="edgeStyle=orthogonalEdgeStyle;rounded=0;orthogonalLoop=1;jettySize=auto;html=1;entryX=0.5;entryY=1;entryDx=0;entryDy=0;" edge="1" parent="1" source="T2ekVF5NeQB2pHT4nhK3-24" target="T2ekVF5NeQB2pHT4nhK3-21">
          <mxGeometry relative="1" as="geometry" />
        </mxCell>
        <mxCell id="T2ekVF5NeQB2pHT4nhK3-34" style="edgeStyle=orthogonalEdgeStyle;rounded=0;orthogonalLoop=1;jettySize=auto;html=1;entryX=0.421;entryY=1.036;entryDx=0;entryDy=0;entryPerimeter=0;" edge="1" parent="1" source="T2ekVF5NeQB2pHT4nhK3-24" target="T2ekVF5NeQB2pHT4nhK3-23">
          <mxGeometry relative="1" as="geometry" />
        </mxCell>
        <mxCell id="T2ekVF5NeQB2pHT4nhK3-36" style="edgeStyle=orthogonalEdgeStyle;rounded=0;orthogonalLoop=1;jettySize=auto;html=1;entryX=0.468;entryY=0.009;entryDx=0;entryDy=0;entryPerimeter=0;" edge="1" parent="1" source="T2ekVF5NeQB2pHT4nhK3-25" target="T2ekVF5NeQB2pHT4nhK3-22">
          <mxGeometry relative="1" as="geometry" />
        </mxCell>
      </root>
    </mxGraphModel>
  </diagram>
</mxfile>
